<svg width="228" height="22" viewBox="0 0 228 22" fill="none" xmlns="http://www.w3.org/2000/svg">
<path d="M9.80657 2.08629L10.8956 2.51529C11.284 2.66823 11.716 2.66823 12.1045 2.51529L13.1935 2.08629C13.8346 1.83416 14.5485 1.84059 15.1849 2.10423C15.8214 2.36788 16.3307 2.86817 16.6057 3.49979L17.0721 4.57229C17.2386 4.95505 17.544 5.26046 17.9268 5.42699L18.9993 5.89339C19.6312 6.16839 20.1317 6.6779 20.3953 7.3146C20.659 7.95129 20.6652 8.66547 20.4128 9.30669L19.9838 10.3957C19.8311 10.7838 19.8311 11.2154 19.9838 11.6035L20.4128 12.6925C20.6649 13.3336 20.6585 14.0475 20.3948 14.6839C20.1312 15.3204 19.6309 15.8297 18.9993 16.1047L17.9268 16.5711C17.544 16.7375 17.2385 17.043 17.0721 17.4258L16.6057 18.4983C16.3307 19.1302 15.8212 19.6307 15.1845 19.8943C14.5478 20.158 13.8336 20.1643 13.1924 19.9118L12.1034 19.4828C11.7152 19.3301 11.2837 19.3301 10.8956 19.4828L9.80657 19.9118C9.16548 20.1639 8.45157 20.1575 7.81513 19.8939C7.17869 19.6302 6.66936 19.1299 6.39437 18.4983L5.92797 17.4258C5.76144 17.043 5.45603 16.7376 5.07327 16.5711L4.00077 16.1047C3.36888 15.8297 2.86839 15.3202 2.60472 14.6835C2.34106 14.0468 2.3348 13.3326 2.58727 12.6914L3.01627 11.6024C3.16892 11.2143 3.16892 10.7827 3.01627 10.3946L2.58727 9.30559C2.33513 8.66451 2.34156 7.9506 2.60521 7.31415C2.86885 6.67771 3.36915 6.16839 4.00077 5.89339L5.07327 5.42699C5.45603 5.26046 5.76144 4.95505 5.92797 4.57229L6.39437 3.49979C6.66936 2.86791 7.17887 2.36741 7.81557 2.10375C8.45227 1.84008 9.16645 1.83382 9.80767 2.08629H9.80657ZM13.5961 3.10929L12.5071 3.53829C11.8599 3.79299 11.1402 3.79299 10.493 3.53829L9.40397 3.10929C9.02797 2.9615 8.6093 2.96536 8.23609 3.12006C7.86288 3.27476 7.56425 3.56824 7.40307 3.93869L6.93667 5.01119C6.65911 5.64912 6.15009 6.15814 5.51217 6.43569L4.43967 6.90209C4.06914 7.06348 3.77572 7.36237 3.62121 7.73582C3.46671 8.10926 3.46318 8.5281 3.61137 8.90409L4.03927 9.99199C4.29397 10.6392 4.29397 11.3589 4.03927 12.0061L3.61027 13.0951C3.30337 13.8761 3.66967 14.7605 4.43967 15.096L5.51217 15.5624C6.15009 15.84 6.65911 16.349 6.93667 16.9869L7.40307 18.0594C7.56445 18.4299 7.86335 18.7233 8.23679 18.8779C8.61024 19.0324 9.02908 19.0359 9.40507 18.8877L10.493 18.4587C11.1402 18.204 11.8599 18.204 12.5071 18.4587L13.5961 18.8877C14.3771 19.1957 15.2615 18.8294 15.597 18.0594L16.0634 16.9869C16.3409 16.349 16.8499 15.84 17.4879 15.5624L18.5604 15.096C18.9309 14.9346 19.2243 14.6357 19.3788 14.2623C19.5333 13.8888 19.5369 13.47 19.3887 13.094L18.9597 12.0061C18.705 11.3589 18.705 10.6392 18.9597 9.99199L19.3887 8.90299C19.5365 8.52713 19.5328 8.10857 19.3783 7.73538C19.2239 7.36219 18.9306 7.06347 18.5604 6.90209L17.4879 6.43569C16.8499 6.15814 16.3409 5.64912 16.0634 5.01119L15.597 3.93869C15.4356 3.56817 15.1367 3.27474 14.7632 3.12024C14.3898 2.96573 13.971 2.9622 13.595 3.11039L13.5961 3.10929ZM10.3764 12.9477L14.3892 8.43329C14.4807 8.33197 14.6067 8.26834 14.7426 8.25478C14.8785 8.24123 15.0146 8.27872 15.1244 8.35995C15.2342 8.44119 15.3098 8.56037 15.3366 8.69429C15.3633 8.82821 15.3393 8.9673 15.2692 9.08449L15.2109 9.16479L10.8109 14.1148C10.7221 14.2146 10.6 14.2787 10.4674 14.2951C10.3348 14.3115 10.2008 14.2791 10.0904 14.2039L10.0112 14.1379L7.81117 11.9379C7.71373 11.8409 7.65616 11.7109 7.6498 11.5735C7.64344 11.4362 7.68876 11.3014 7.77682 11.1959C7.86489 11.0903 7.98931 11.0215 8.12557 11.0031C8.26183 10.9847 8.40004 11.018 8.51297 11.0964L8.58887 11.1602L10.3764 12.9477Z" fill="white"/>
<path d="M33.71 16.168C33.282 16.168 32.884 16.09 32.516 15.934C32.148 15.774 31.83 15.55 31.562 15.262C31.298 14.97 31.104 14.624 30.98 14.224L32.006 13.93C32.138 14.33 32.358 14.634 32.666 14.842C32.974 15.05 33.32 15.152 33.704 15.148C34.056 15.14 34.36 15.06 34.616 14.908C34.876 14.752 35.076 14.54 35.216 14.272C35.36 14.004 35.432 13.694 35.432 13.342C35.432 12.806 35.272 12.372 34.952 12.04C34.632 11.704 34.212 11.536 33.692 11.536C33.548 11.536 33.396 11.556 33.236 11.596C33.08 11.636 32.934 11.692 32.798 11.764L32.282 10.918L35.486 8.02L35.624 8.38H31.322V7.36H36.416V8.386L33.686 11.002L33.674 10.624C34.246 10.584 34.746 10.678 35.174 10.906C35.602 11.134 35.934 11.46 36.17 11.884C36.41 12.308 36.53 12.794 36.53 13.342C36.53 13.894 36.406 14.382 36.158 14.806C35.91 15.23 35.574 15.564 35.15 15.808C34.726 16.048 34.246 16.168 33.71 16.168ZM41.006 16.18C40.446 16.18 39.946 16.054 39.506 15.802C39.07 15.546 38.724 15.2 38.468 14.764C38.216 14.324 38.09 13.824 38.09 13.264V10.096C38.09 9.536 38.216 9.036 38.468 8.596C38.724 8.156 39.07 7.81 39.506 7.558C39.946 7.306 40.446 7.18 41.006 7.18C41.566 7.18 42.066 7.306 42.506 7.558C42.946 7.81 43.292 8.156 43.544 8.596C43.796 9.036 43.922 9.536 43.922 10.096V13.264C43.922 13.824 43.796 14.324 43.544 14.764C43.292 15.2 42.946 15.546 42.506 15.802C42.066 16.054 41.566 16.18 41.006 16.18ZM41.006 15.154C41.346 15.154 41.654 15.072 41.93 14.908C42.206 14.744 42.426 14.524 42.59 14.248C42.754 13.968 42.836 13.66 42.836 13.324V10.03C42.836 9.69 42.754 9.382 42.59 9.106C42.426 8.83 42.206 8.61 41.93 8.446C41.654 8.282 41.346 8.2 41.006 8.2C40.67 8.2 40.362 8.282 40.082 8.446C39.806 8.61 39.586 8.83 39.422 9.106C39.258 9.382 39.176 9.69 39.176 10.03V13.324C39.176 13.66 39.258 13.968 39.422 14.248C39.586 14.524 39.806 14.744 40.082 14.908C40.362 15.072 40.67 15.154 41.006 15.154ZM45.4817 12.658V11.776H49.0817V12.658H45.4817ZM50.6408 16V7.36H53.3048C53.3928 7.36 53.5468 7.362 53.7668 7.366C53.9868 7.37 54.1968 7.386 54.3968 7.414C55.0648 7.502 55.6228 7.746 56.0708 8.146C56.5228 8.542 56.8628 9.046 57.0908 9.658C57.3188 10.27 57.4328 10.944 57.4328 11.68C57.4328 12.416 57.3188 13.09 57.0908 13.702C56.8628 14.314 56.5228 14.82 56.0708 15.22C55.6228 15.616 55.0648 15.858 54.3968 15.946C54.1968 15.97 53.9848 15.986 53.7608 15.994C53.5408 15.998 53.3888 16 53.3048 16H50.6408ZM51.7388 14.98H53.3048C53.4568 14.98 53.6268 14.976 53.8148 14.968C54.0028 14.956 54.1668 14.938 54.3068 14.914C54.7788 14.826 55.1608 14.628 55.4528 14.32C55.7448 14.012 55.9588 13.628 56.0948 13.168C56.2308 12.708 56.2988 12.212 56.2988 11.68C56.2988 11.136 56.2288 10.634 56.0888 10.174C55.9528 9.714 55.7388 9.332 55.4468 9.028C55.1548 8.724 54.7748 8.53 54.3068 8.446C54.1668 8.418 54.0008 8.4 53.8088 8.392C53.6168 8.384 53.4488 8.38 53.3048 8.38H51.7388V14.98ZM57.9744 16L60.8664 7.36H62.3544L65.2464 16H64.1364L61.4304 7.984H61.7664L59.0844 16H57.9744ZM59.3664 13.978V12.976H63.8544V13.978H59.3664ZM67.6756 16V12.406L64.7656 7.36H66.0076L68.2156 11.182L70.4176 7.36H71.6596L68.7556 12.406V16H67.6756ZM77.4841 16.18C76.8721 16.18 76.3201 16.076 75.8281 15.868C75.3401 15.66 74.9361 15.364 74.6161 14.98C74.3001 14.592 74.0941 14.134 73.9981 13.606L75.1021 13.432C75.2421 13.976 75.5321 14.402 75.9721 14.71C76.4161 15.014 76.9381 15.166 77.5381 15.166C77.9261 15.166 78.2761 15.106 78.5881 14.986C78.9041 14.862 79.1541 14.686 79.3381 14.458C79.5221 14.23 79.6141 13.96 79.6141 13.648C79.6141 13.456 79.5801 13.292 79.5121 13.156C79.4481 13.016 79.3581 12.898 79.2421 12.802C79.1301 12.702 79.0021 12.618 78.8581 12.55C78.7141 12.482 78.5641 12.426 78.4081 12.382L76.2061 11.728C75.9661 11.656 75.7341 11.566 75.5101 11.458C75.2861 11.346 75.0861 11.208 74.9101 11.044C74.7341 10.876 74.5941 10.676 74.4901 10.444C74.3861 10.208 74.3341 9.93 74.3341 9.61C74.3341 9.098 74.4661 8.662 74.7301 8.302C74.9981 7.938 75.3601 7.66 75.8161 7.468C76.2721 7.276 76.7861 7.182 77.3581 7.186C77.9381 7.19 78.4561 7.294 78.9121 7.498C79.3721 7.698 79.7521 7.986 80.0521 8.362C80.3561 8.738 80.5601 9.188 80.6641 9.712L79.5301 9.91C79.4701 9.558 79.3361 9.256 79.1281 9.004C78.9241 8.748 78.6681 8.552 78.3601 8.416C78.0521 8.276 77.7141 8.204 77.3461 8.2C76.9941 8.196 76.6761 8.252 76.3921 8.368C76.1081 8.484 75.8821 8.646 75.7141 8.854C75.5461 9.058 75.4621 9.294 75.4621 9.562C75.4621 9.826 75.5381 10.04 75.6901 10.204C75.8421 10.364 76.0281 10.492 76.2481 10.588C76.4721 10.68 76.6901 10.756 76.9021 10.816L78.5461 11.29C78.7341 11.342 78.9501 11.414 79.1941 11.506C79.4421 11.598 79.6821 11.728 79.9141 11.896C80.1461 12.06 80.3381 12.28 80.4901 12.556C80.6421 12.828 80.7181 13.172 80.7181 13.588C80.7181 14.004 80.6341 14.374 80.4661 14.698C80.3021 15.022 80.0721 15.294 79.7761 15.514C79.4801 15.73 79.1361 15.894 78.7441 16.006C78.3521 16.122 77.9321 16.18 77.4841 16.18ZM81.3767 16L84.2687 7.36H85.7567L88.6487 16H87.5387L84.8327 7.984H85.1687L82.4867 16H81.3767ZM82.7687 13.978V12.976H87.2567V13.978H82.7687ZM91.234 16V8.374H88.288V7.36H95.248V8.374H92.302V16H91.234ZM96.3233 16V7.36H97.3913V16H96.3233ZM102.258 16.18C101.646 16.18 101.094 16.076 100.602 15.868C100.114 15.66 99.7096 15.364 99.3896 14.98C99.0736 14.592 98.8676 14.134 98.7716 13.606L99.8756 13.432C100.016 13.976 100.306 14.402 100.746 14.71C101.19 15.014 101.712 15.166 102.312 15.166C102.7 15.166 103.05 15.106 103.362 14.986C103.678 14.862 103.928 14.686 104.112 14.458C104.296 14.23 104.388 13.96 104.388 13.648C104.388 13.456 104.354 13.292 104.286 13.156C104.222 13.016 104.132 12.898 104.016 12.802C103.904 12.702 103.776 12.618 103.632 12.55C103.488 12.482 103.338 12.426 103.182 12.382L100.98 11.728C100.74 11.656 100.508 11.566 100.284 11.458C100.06 11.346 99.8596 11.208 99.6836 11.044C99.5076 10.876 99.3676 10.676 99.2636 10.444C99.1596 10.208 99.1076 9.93 99.1076 9.61C99.1076 9.098 99.2396 8.662 99.5036 8.302C99.7716 7.938 100.134 7.66 100.59 7.468C101.046 7.276 101.56 7.182 102.132 7.186C102.712 7.19 103.23 7.294 103.686 7.498C104.146 7.698 104.526 7.986 104.826 8.362C105.13 8.738 105.334 9.188 105.438 9.712L104.304 9.91C104.244 9.558 104.11 9.256 103.902 9.004C103.698 8.748 103.442 8.552 103.134 8.416C102.826 8.276 102.488 8.204 102.12 8.2C101.768 8.196 101.45 8.252 101.166 8.368C100.882 8.484 100.656 8.646 100.488 8.854C100.32 9.058 100.236 9.294 100.236 9.562C100.236 9.826 100.312 10.04 100.464 10.204C100.616 10.364 100.802 10.492 101.022 10.588C101.246 10.68 101.464 10.756 101.676 10.816L103.32 11.29C103.508 11.342 103.724 11.414 103.968 11.506C104.216 11.598 104.456 11.728 104.688 11.896C104.92 12.06 105.112 12.28 105.264 12.556C105.416 12.828 105.492 13.172 105.492 13.588C105.492 14.004 105.408 14.374 105.24 14.698C105.076 15.022 104.846 15.294 104.55 15.514C104.254 15.73 103.91 15.894 103.518 16.006C103.126 16.122 102.706 16.18 102.258 16.18ZM106.75 16V7.36H111.79V8.428H107.818V11.146H111.07V12.214H107.818V16H106.75ZM112.15 16L115.042 7.36H116.53L119.422 16H118.312L115.606 7.984H115.942L113.26 16H112.15ZM113.542 13.978V12.976H118.03V13.978H113.542ZM123.814 16.18C122.954 16.18 122.224 15.99 121.624 15.61C121.024 15.23 120.566 14.702 120.25 14.026C119.938 13.35 119.782 12.568 119.782 11.68C119.782 10.792 119.938 10.01 120.25 9.334C120.566 8.658 121.024 8.13 121.624 7.75C122.224 7.37 122.954 7.18 123.814 7.18C124.814 7.18 125.636 7.434 126.28 7.942C126.928 8.45 127.374 9.134 127.618 9.994L126.532 10.282C126.356 9.638 126.042 9.13 125.59 8.758C125.138 8.386 124.546 8.2 123.814 8.2C123.17 8.2 122.634 8.346 122.206 8.638C121.778 8.93 121.456 9.338 121.24 9.862C121.024 10.382 120.914 10.988 120.91 11.68C120.906 12.368 121.012 12.974 121.228 13.498C121.444 14.018 121.768 14.426 122.2 14.722C122.632 15.014 123.17 15.16 123.814 15.16C124.546 15.16 125.138 14.974 125.59 14.602C126.042 14.226 126.356 13.718 126.532 13.078L127.618 13.366C127.374 14.222 126.928 14.906 126.28 15.418C125.636 15.926 124.814 16.18 123.814 16.18ZM131.16 16V8.374H128.214V7.36H135.174V8.374H132.228V16H131.16ZM136.249 16V7.36H137.317V16H136.249ZM142.669 16.18C141.809 16.18 141.079 15.99 140.479 15.61C139.879 15.23 139.421 14.702 139.105 14.026C138.793 13.35 138.637 12.568 138.637 11.68C138.637 10.792 138.793 10.01 139.105 9.334C139.421 8.658 139.879 8.13 140.479 7.75C141.079 7.37 141.809 7.18 142.669 7.18C143.533 7.18 144.265 7.37 144.865 7.75C145.465 8.13 145.921 8.658 146.233 9.334C146.545 10.01 146.701 10.792 146.701 11.68C146.701 12.568 146.545 13.35 146.233 14.026C145.921 14.702 145.465 15.23 144.865 15.61C144.265 15.99 143.533 16.18 142.669 16.18ZM142.669 15.16C143.313 15.164 143.849 15.02 144.277 14.728C144.709 14.432 145.031 14.022 145.243 13.498C145.459 12.974 145.567 12.368 145.567 11.68C145.567 10.988 145.459 10.382 145.243 9.862C145.031 9.342 144.709 8.936 144.277 8.644C143.849 8.352 143.313 8.204 142.669 8.2C142.025 8.196 141.489 8.34 141.061 8.632C140.637 8.924 140.317 9.332 140.101 9.856C139.885 10.38 139.775 10.988 139.771 11.68C139.767 12.368 139.873 12.972 140.089 13.492C140.305 14.012 140.627 14.42 141.055 14.716C141.487 15.008 142.025 15.156 142.669 15.16ZM147.906 16V7.36H148.986L153.492 14.11V7.36H154.572V16H153.492L148.986 9.244V16H147.906ZM162.151 16.18C161.559 16.18 161.019 16.076 160.531 15.868C160.043 15.66 159.623 15.362 159.271 14.974C158.919 14.582 158.647 14.11 158.455 13.558C158.267 13.002 158.173 12.376 158.173 11.68C158.173 10.76 158.337 9.964 158.665 9.292C158.993 8.62 159.455 8.102 160.051 7.738C160.647 7.37 161.347 7.186 162.151 7.186C163.119 7.186 163.899 7.412 164.491 7.864C165.083 8.312 165.491 8.926 165.715 9.706L164.635 9.928C164.455 9.404 164.159 8.986 163.747 8.674C163.335 8.362 162.821 8.206 162.205 8.206C161.561 8.202 161.025 8.346 160.597 8.638C160.173 8.926 159.853 9.332 159.637 9.856C159.421 10.38 159.311 10.988 159.307 11.68C159.303 12.368 159.409 12.972 159.625 13.492C159.841 14.012 160.163 14.42 160.591 14.716C161.023 15.008 161.561 15.156 162.205 15.16C162.761 15.164 163.229 15.058 163.609 14.842C163.989 14.626 164.283 14.314 164.491 13.906C164.699 13.498 164.825 13.008 164.868 12.436H163.033V11.554H165.997C166.009 11.634 166.015 11.73 166.015 11.842C166.019 11.95 166.021 12.024 166.021 12.064C166.021 12.852 165.873 13.558 165.577 14.182C165.285 14.802 164.851 15.29 164.275 15.646C163.703 16.002 162.995 16.18 162.151 16.18ZM170.627 16.18C169.959 16.18 169.369 16.042 168.857 15.766C168.345 15.49 167.943 15.104 167.651 14.608C167.363 14.108 167.219 13.522 167.219 12.85V7.366L168.299 7.36V12.76C168.299 13.168 168.367 13.524 168.503 13.828C168.643 14.128 168.827 14.378 169.055 14.578C169.283 14.778 169.533 14.928 169.805 15.028C170.081 15.124 170.355 15.172 170.627 15.172C170.903 15.172 171.179 15.122 171.455 15.022C171.731 14.922 171.981 14.774 172.205 14.578C172.433 14.378 172.615 14.126 172.751 13.822C172.887 13.518 172.955 13.164 172.955 12.76V7.36H174.035V12.85C174.035 13.518 173.889 14.102 173.597 14.602C173.309 15.102 172.909 15.49 172.397 15.766C171.885 16.042 171.295 16.18 170.627 16.18ZM174.752 16L177.644 7.36H179.132L182.024 16H180.914L178.208 7.984H178.544L175.862 16H174.752ZM176.144 13.978V12.976H180.632V13.978H176.144ZM183.098 16V7.36H186.512C186.596 7.36 186.696 7.364 186.812 7.372C186.928 7.376 187.04 7.388 187.148 7.408C187.616 7.48 188.008 7.64 188.324 7.888C188.644 8.136 188.884 8.45 189.044 8.83C189.204 9.206 189.284 9.624 189.284 10.084C189.284 10.752 189.11 11.332 188.762 11.824C188.414 12.312 187.904 12.618 187.232 12.742L186.824 12.808H184.166V16H183.098ZM188.24 16L186.536 12.484L187.592 12.16L189.464 16H188.24ZM184.166 11.794H186.476C186.552 11.794 186.638 11.79 186.734 11.782C186.834 11.774 186.928 11.76 187.016 11.74C187.292 11.676 187.516 11.56 187.688 11.392C187.864 11.22 187.992 11.02 188.072 10.792C188.152 10.56 188.192 10.324 188.192 10.084C188.192 9.844 188.152 9.61 188.072 9.382C187.992 9.15 187.864 8.948 187.688 8.776C187.516 8.604 187.292 8.488 187.016 8.428C186.928 8.404 186.834 8.39 186.734 8.386C186.638 8.378 186.552 8.374 186.476 8.374H184.166V11.794ZM190.185 16L193.077 7.36H194.565L197.457 16H196.347L193.641 7.984H193.977L191.295 16H190.185ZM191.577 13.978V12.976H196.065V13.978H191.577ZM198.531 16V7.36H199.611L204.117 14.11V7.36H205.197V16H204.117L199.611 9.244V16H198.531ZM209.101 16V8.374H206.155V7.36H213.115V8.374H210.169V16H209.101ZM214.07 16V7.36H219.53V8.374H215.138V11.08H218.81V12.094H215.138V14.986H219.53V16H214.07ZM220.973 16V7.36H226.433V8.374H222.041V11.08H225.713V12.094H222.041V14.986H226.433V16H220.973Z" fill="white"/>
</svg>
