<svg width="257" height="22" viewBox="0 0 257 22" fill="none" xmlns="http://www.w3.org/2000/svg">
<path d="M21.1037 10.1217L19.9005 7.11391C19.8119 6.89016 19.6579 6.69832 19.4586 6.56342C19.2593 6.42852 19.024 6.35681 18.7834 6.35766H15.6406V5.5C15.6406 5.36325 15.5863 5.2321 15.4896 5.1354C15.3929 5.0387 15.2618 4.98438 15.125 4.98438H2.0625C1.74341 4.98438 1.43739 5.11113 1.21176 5.33676C0.986132 5.56239 0.859375 5.86841 0.859375 6.1875V15.8125C0.859375 16.1316 0.986132 16.4376 1.21176 16.6632C1.43739 16.8889 1.74341 17.0156 2.0625 17.0156H3.66094C3.77928 17.5984 4.09547 18.1224 4.55593 18.4988C5.01639 18.8751 5.5928 19.0807 6.1875 19.0807C6.7822 19.0807 7.35861 18.8751 7.81907 18.4988C8.27953 18.1224 8.59572 17.5984 8.71406 17.0156H13.2859C13.4043 17.5984 13.7205 18.1224 14.1809 18.4988C14.6414 18.8751 15.2178 19.0807 15.8125 19.0807C16.4072 19.0807 16.9836 18.8751 17.4441 18.4988C17.9045 18.1224 18.2207 17.5984 18.3391 17.0156H19.9375C20.2566 17.0156 20.5626 16.8889 20.7882 16.6632C21.0139 16.4376 21.1406 16.1316 21.1406 15.8125V10.3125C21.1405 10.2471 21.128 10.1824 21.1037 10.1217ZM15.6406 7.39062H18.7842C18.8186 7.39059 18.8523 7.4009 18.8808 7.4202C18.9093 7.43951 18.9313 7.46693 18.9441 7.49891L19.8636 9.79688H15.6406V7.39062ZM1.89062 6.1875C1.89062 6.14192 1.90873 6.0982 1.94097 6.06597C1.9732 6.03373 2.01692 6.01562 2.0625 6.01562H14.6094V11.8594H1.89062V6.1875ZM6.1875 18.0469C5.88156 18.0469 5.58248 17.9562 5.3281 17.7862C5.07372 17.6162 4.87545 17.3746 4.75837 17.092C4.64129 16.8093 4.61066 16.4983 4.67035 16.1982C4.73003 15.8982 4.87736 15.6225 5.09369 15.4062C5.31003 15.1899 5.58566 15.0425 5.88572 14.9828C6.18578 14.9232 6.49681 14.9538 6.77946 15.0709C7.06212 15.188 7.30371 15.3862 7.47368 15.6406C7.64365 15.895 7.73438 16.1941 7.73438 16.5C7.73438 16.9103 7.5714 17.3037 7.28131 17.5938C6.99121 17.8839 6.59776 18.0469 6.1875 18.0469ZM13.2859 15.9844H8.71406C8.59572 15.4016 8.27953 14.8776 7.81907 14.5012C7.35861 14.1249 6.7822 13.9193 6.1875 13.9193C5.5928 13.9193 5.01639 14.1249 4.55593 14.5012C4.09547 14.8776 3.77928 15.4016 3.66094 15.9844H2.0625C2.01692 15.9844 1.9732 15.9663 1.94097 15.934C1.90873 15.9018 1.89062 15.8581 1.89062 15.8125V12.8906H14.6094V14.2209C14.2725 14.3992 13.9792 14.6497 13.7504 14.9546C13.5216 15.2594 13.363 15.6111 13.2859 15.9844ZM15.8125 18.0469C15.5066 18.0469 15.2075 17.9562 14.9531 17.7862C14.6987 17.6162 14.5005 17.3746 14.3834 17.092C14.2663 16.8093 14.2357 16.4983 14.2953 16.1982C14.355 15.8982 14.5024 15.6225 14.7187 15.4062C14.935 15.1899 15.2107 15.0425 15.5107 14.9828C15.8108 14.9232 16.1218 14.9538 16.4045 15.0709C16.6871 15.188 16.9287 15.3862 17.0987 15.6406C17.2687 15.895 17.3594 16.1941 17.3594 16.5C17.3594 16.9103 17.1964 17.3037 16.9063 17.5938C16.6162 17.8839 16.2228 18.0469 15.8125 18.0469ZM20.1094 15.8125C20.1094 15.8581 20.0913 15.9018 20.059 15.934C20.0268 15.9663 19.9831 15.9844 19.9375 15.9844H18.3391C18.2194 15.4024 17.9028 14.8795 17.4426 14.5038C16.9823 14.1281 16.4066 13.9226 15.8125 13.9219C15.7549 13.9219 15.6973 13.9219 15.6406 13.9279V10.8281H20.1094V15.8125Z" fill="white"/>
<path d="M30.84 16V7.36H35.88V8.428H31.908V11.146H35.16V12.214H31.908V16H30.84ZM36.9572 16V7.36H40.3712C40.4552 7.36 40.5552 7.364 40.6712 7.372C40.7872 7.376 40.8992 7.388 41.0072 7.408C41.4752 7.48 41.8672 7.64 42.1832 7.888C42.5032 8.136 42.7432 8.45 42.9032 8.83C43.0632 9.206 43.1432 9.624 43.1432 10.084C43.1432 10.752 42.9692 11.332 42.6212 11.824C42.2732 12.312 41.7632 12.618 41.0912 12.742L40.6832 12.808H38.0252V16H36.9572ZM42.0992 16L40.3952 12.484L41.4512 12.16L43.3232 16H42.0992ZM38.0252 11.794H40.3352C40.4112 11.794 40.4972 11.79 40.5932 11.782C40.6932 11.774 40.7872 11.76 40.8752 11.74C41.1512 11.676 41.3752 11.56 41.5472 11.392C41.7232 11.22 41.8512 11.02 41.9312 10.792C42.0112 10.56 42.0512 10.324 42.0512 10.084C42.0512 9.844 42.0112 9.61 41.9312 9.382C41.8512 9.15 41.7232 8.948 41.5472 8.776C41.3752 8.604 41.1512 8.488 40.8752 8.428C40.7872 8.404 40.6932 8.39 40.5932 8.386C40.4972 8.378 40.4112 8.374 40.3352 8.374H38.0252V11.794ZM44.6447 16V7.36H50.1047V8.374H45.7127V11.08H49.3847V12.094H45.7127V14.986H50.1047V16H44.6447ZM51.547 16V7.36H57.007V8.374H52.615V11.08H56.287V12.094H52.615V14.986H57.007V16H51.547ZM60.8517 16V7.36H63.5157C63.6037 7.36 63.7577 7.362 63.9777 7.366C64.1977 7.37 64.4077 7.386 64.6077 7.414C65.2757 7.502 65.8337 7.746 66.2817 8.146C66.7337 8.542 67.0737 9.046 67.3017 9.658C67.5297 10.27 67.6437 10.944 67.6437 11.68C67.6437 12.416 67.5297 13.09 67.3017 13.702C67.0737 14.314 66.7337 14.82 66.2817 15.22C65.8337 15.616 65.2757 15.858 64.6077 15.946C64.4077 15.97 64.1957 15.986 63.9717 15.994C63.7517 15.998 63.5997 16 63.5157 16H60.8517ZM61.9497 14.98H63.5157C63.6677 14.98 63.8377 14.976 64.0257 14.968C64.2137 14.956 64.3777 14.938 64.5177 14.914C64.9897 14.826 65.3717 14.628 65.6637 14.32C65.9557 14.012 66.1697 13.628 66.3057 13.168C66.4417 12.708 66.5097 12.212 66.5097 11.68C66.5097 11.136 66.4397 10.634 66.2997 10.174C66.1637 9.714 65.9497 9.332 65.6577 9.028C65.3657 8.724 64.9857 8.53 64.5177 8.446C64.3777 8.418 64.2117 8.4 64.0197 8.392C63.8277 8.384 63.6597 8.38 63.5157 8.38H61.9497V14.98ZM69.0197 16V7.36H74.4797V8.374H70.0877V11.08H73.7597V12.094H70.0877V14.986H74.4797V16H69.0197ZM76.042 16V7.36H77.11V14.986H81.118V16H76.042ZM82.253 16V7.36H83.321V16H82.253ZM87.2333 16L84.3413 7.36H85.4513L87.9653 14.866L90.5033 7.36H91.6133L88.7213 16H87.2333ZM92.5158 16V7.36H97.9758V8.374H93.5838V11.08H97.2558V12.094H93.5838V14.986H97.9758V16H92.5158ZM99.4181 16V7.36H102.832C102.916 7.36 103.016 7.364 103.132 7.372C103.248 7.376 103.36 7.388 103.468 7.408C103.936 7.48 104.328 7.64 104.644 7.888C104.964 8.136 105.204 8.45 105.364 8.83C105.524 9.206 105.604 9.624 105.604 10.084C105.604 10.752 105.43 11.332 105.082 11.824C104.734 12.312 104.224 12.618 103.552 12.742L103.144 12.808H100.486V16H99.4181ZM104.56 16L102.856 12.484L103.912 12.16L105.784 16H104.56ZM100.486 11.794H102.796C102.872 11.794 102.958 11.79 103.054 11.782C103.154 11.774 103.248 11.76 103.336 11.74C103.612 11.676 103.836 11.56 104.008 11.392C104.184 11.22 104.312 11.02 104.392 10.792C104.472 10.56 104.512 10.324 104.512 10.084C104.512 9.844 104.472 9.61 104.392 9.382C104.312 9.15 104.184 8.948 104.008 8.776C103.836 8.604 103.612 8.488 103.336 8.428C103.248 8.404 103.154 8.39 103.054 8.386C102.958 8.378 102.872 8.374 102.796 8.374H100.486V11.794ZM109.023 16V12.406L106.113 7.36H107.355L109.563 11.182L111.765 7.36H113.007L110.103 12.406V16H109.023ZM119.318 16.18C118.458 16.18 117.728 15.99 117.128 15.61C116.528 15.23 116.07 14.702 115.754 14.026C115.442 13.35 115.286 12.568 115.286 11.68C115.286 10.792 115.442 10.01 115.754 9.334C116.07 8.658 116.528 8.13 117.128 7.75C117.728 7.37 118.458 7.18 119.318 7.18C120.182 7.18 120.914 7.37 121.514 7.75C122.114 8.13 122.57 8.658 122.882 9.334C123.194 10.01 123.35 10.792 123.35 11.68C123.35 12.568 123.194 13.35 122.882 14.026C122.57 14.702 122.114 15.23 121.514 15.61C120.914 15.99 120.182 16.18 119.318 16.18ZM119.318 15.16C119.962 15.164 120.498 15.02 120.926 14.728C121.358 14.432 121.68 14.022 121.892 13.498C122.108 12.974 122.216 12.368 122.216 11.68C122.216 10.988 122.108 10.382 121.892 9.862C121.68 9.342 121.358 8.936 120.926 8.644C120.498 8.352 119.962 8.204 119.318 8.2C118.674 8.196 118.138 8.34 117.71 8.632C117.286 8.924 116.966 9.332 116.75 9.856C116.534 10.38 116.424 10.988 116.42 11.68C116.416 12.368 116.522 12.972 116.738 13.492C116.954 14.012 117.276 14.42 117.704 14.716C118.136 15.008 118.674 15.156 119.318 15.16ZM124.555 16V7.36H125.635L130.141 14.11V7.36H131.221V16H130.141L125.635 9.244V16H124.555ZM138.853 16.18C137.993 16.18 137.263 15.99 136.663 15.61C136.063 15.23 135.605 14.702 135.289 14.026C134.977 13.35 134.821 12.568 134.821 11.68C134.821 10.792 134.977 10.01 135.289 9.334C135.605 8.658 136.063 8.13 136.663 7.75C137.263 7.37 137.993 7.18 138.853 7.18C139.717 7.18 140.449 7.37 141.049 7.75C141.649 8.13 142.105 8.658 142.417 9.334C142.729 10.01 142.885 10.792 142.885 11.68C142.885 12.568 142.729 13.35 142.417 14.026C142.105 14.702 141.649 15.23 141.049 15.61C140.449 15.99 139.717 16.18 138.853 16.18ZM138.853 15.16C139.497 15.164 140.033 15.02 140.461 14.728C140.893 14.432 141.215 14.022 141.427 13.498C141.643 12.974 141.751 12.368 141.751 11.68C141.751 10.988 141.643 10.382 141.427 9.862C141.215 9.342 140.893 8.936 140.461 8.644C140.033 8.352 139.497 8.204 138.853 8.2C138.209 8.196 137.673 8.34 137.245 8.632C136.821 8.924 136.501 9.332 136.285 9.856C136.069 10.38 135.959 10.988 135.955 11.68C135.951 12.368 136.057 12.972 136.273 13.492C136.489 14.012 136.811 14.42 137.239 14.716C137.671 15.008 138.209 15.156 138.853 15.16ZM144.09 16V7.36H147.504C147.588 7.36 147.688 7.364 147.804 7.372C147.92 7.376 148.032 7.388 148.14 7.408C148.608 7.48 149 7.64 149.316 7.888C149.636 8.136 149.876 8.45 150.036 8.83C150.196 9.206 150.276 9.624 150.276 10.084C150.276 10.752 150.102 11.332 149.754 11.824C149.406 12.312 148.896 12.618 148.224 12.742L147.816 12.808H145.158V16H144.09ZM149.232 16L147.528 12.484L148.584 12.16L150.456 16H149.232ZM145.158 11.794H147.468C147.544 11.794 147.63 11.79 147.726 11.782C147.826 11.774 147.92 11.76 148.008 11.74C148.284 11.676 148.508 11.56 148.68 11.392C148.856 11.22 148.984 11.02 149.064 10.792C149.144 10.56 149.184 10.324 149.184 10.084C149.184 9.844 149.144 9.61 149.064 9.382C148.984 9.15 148.856 8.948 148.68 8.776C148.508 8.604 148.284 8.488 148.008 8.428C147.92 8.404 147.826 8.39 147.726 8.386C147.63 8.378 147.544 8.374 147.468 8.374H145.158V11.794ZM151.778 16V7.36H154.442C154.53 7.36 154.684 7.362 154.904 7.366C155.124 7.37 155.334 7.386 155.534 7.414C156.202 7.502 156.76 7.746 157.208 8.146C157.66 8.542 158 9.046 158.228 9.658C158.456 10.27 158.57 10.944 158.57 11.68C158.57 12.416 158.456 13.09 158.228 13.702C158 14.314 157.66 14.82 157.208 15.22C156.76 15.616 156.202 15.858 155.534 15.946C155.334 15.97 155.122 15.986 154.898 15.994C154.678 15.998 154.526 16 154.442 16H151.778ZM152.876 14.98H154.442C154.594 14.98 154.764 14.976 154.952 14.968C155.14 14.956 155.304 14.938 155.444 14.914C155.916 14.826 156.298 14.628 156.59 14.32C156.882 14.012 157.096 13.628 157.232 13.168C157.368 12.708 157.436 12.212 157.436 11.68C157.436 11.136 157.366 10.634 157.226 10.174C157.09 9.714 156.876 9.332 156.584 9.028C156.292 8.724 155.912 8.53 155.444 8.446C155.304 8.418 155.138 8.4 154.946 8.392C154.754 8.384 154.586 8.38 154.442 8.38H152.876V14.98ZM159.945 16V7.36H165.405V8.374H161.013V11.08H164.685V12.094H161.013V14.986H165.405V16H159.945ZM166.848 16V7.36H170.262C170.346 7.36 170.446 7.364 170.562 7.372C170.678 7.376 170.79 7.388 170.898 7.408C171.366 7.48 171.758 7.64 172.074 7.888C172.394 8.136 172.634 8.45 172.794 8.83C172.954 9.206 173.034 9.624 173.034 10.084C173.034 10.752 172.86 11.332 172.512 11.824C172.164 12.312 171.654 12.618 170.982 12.742L170.574 12.808H167.916V16H166.848ZM171.99 16L170.286 12.484L171.342 12.16L173.214 16H171.99ZM167.916 11.794H170.226C170.302 11.794 170.388 11.79 170.484 11.782C170.584 11.774 170.678 11.76 170.766 11.74C171.042 11.676 171.266 11.56 171.438 11.392C171.614 11.22 171.742 11.02 171.822 10.792C171.902 10.56 171.942 10.324 171.942 10.084C171.942 9.844 171.902 9.61 171.822 9.382C171.742 9.15 171.614 8.948 171.438 8.776C171.266 8.604 171.042 8.488 170.766 8.428C170.678 8.404 170.584 8.39 170.484 8.386C170.388 8.378 170.302 8.374 170.226 8.374H167.916V11.794ZM177.601 16.18C176.989 16.18 176.437 16.076 175.945 15.868C175.457 15.66 175.053 15.364 174.733 14.98C174.417 14.592 174.211 14.134 174.115 13.606L175.219 13.432C175.359 13.976 175.649 14.402 176.089 14.71C176.533 15.014 177.055 15.166 177.655 15.166C178.043 15.166 178.393 15.106 178.705 14.986C179.021 14.862 179.271 14.686 179.455 14.458C179.639 14.23 179.731 13.96 179.731 13.648C179.731 13.456 179.697 13.292 179.629 13.156C179.565 13.016 179.475 12.898 179.359 12.802C179.247 12.702 179.119 12.618 178.975 12.55C178.831 12.482 178.681 12.426 178.525 12.382L176.323 11.728C176.083 11.656 175.851 11.566 175.627 11.458C175.403 11.346 175.203 11.208 175.027 11.044C174.851 10.876 174.711 10.676 174.607 10.444C174.503 10.208 174.451 9.93 174.451 9.61C174.451 9.098 174.583 8.662 174.847 8.302C175.115 7.938 175.477 7.66 175.933 7.468C176.389 7.276 176.903 7.182 177.475 7.186C178.055 7.19 178.573 7.294 179.029 7.498C179.489 7.698 179.869 7.986 180.169 8.362C180.473 8.738 180.677 9.188 180.781 9.712L179.647 9.91C179.587 9.558 179.453 9.256 179.245 9.004C179.041 8.748 178.785 8.552 178.477 8.416C178.169 8.276 177.831 8.204 177.463 8.2C177.111 8.196 176.793 8.252 176.509 8.368C176.225 8.484 175.999 8.646 175.831 8.854C175.663 9.058 175.579 9.294 175.579 9.562C175.579 9.826 175.655 10.04 175.807 10.204C175.959 10.364 176.145 10.492 176.365 10.588C176.589 10.68 176.807 10.756 177.019 10.816L178.663 11.29C178.851 11.342 179.067 11.414 179.311 11.506C179.559 11.598 179.799 11.728 180.031 11.896C180.263 12.06 180.455 12.28 180.607 12.556C180.759 12.828 180.835 13.172 180.835 13.588C180.835 14.004 180.751 14.374 180.583 14.698C180.419 15.022 180.189 15.294 179.893 15.514C179.597 15.73 179.253 15.894 178.861 16.006C178.469 16.122 178.049 16.18 177.601 16.18ZM188.048 16.18C187.188 16.18 186.458 15.99 185.858 15.61C185.258 15.23 184.8 14.702 184.484 14.026C184.172 13.35 184.016 12.568 184.016 11.68C184.016 10.792 184.172 10.01 184.484 9.334C184.8 8.658 185.258 8.13 185.858 7.75C186.458 7.37 187.188 7.18 188.048 7.18C188.912 7.18 189.644 7.37 190.244 7.75C190.844 8.13 191.3 8.658 191.612 9.334C191.924 10.01 192.08 10.792 192.08 11.68C192.08 12.568 191.924 13.35 191.612 14.026C191.3 14.702 190.844 15.23 190.244 15.61C189.644 15.99 188.912 16.18 188.048 16.18ZM188.048 15.16C188.692 15.164 189.228 15.02 189.656 14.728C190.088 14.432 190.41 14.022 190.622 13.498C190.838 12.974 190.946 12.368 190.946 11.68C190.946 10.988 190.838 10.382 190.622 9.862C190.41 9.342 190.088 8.936 189.656 8.644C189.228 8.352 188.692 8.204 188.048 8.2C187.404 8.196 186.868 8.34 186.44 8.632C186.016 8.924 185.696 9.332 185.48 9.856C185.264 10.38 185.154 10.988 185.15 11.68C185.146 12.368 185.252 12.972 185.468 13.492C185.684 14.012 186.006 14.42 186.434 14.716C186.866 15.008 187.404 15.156 188.048 15.16ZM195.034 16L192.142 7.36H193.252L195.766 14.866L198.304 7.36H199.414L196.522 16H195.034ZM200.317 16V7.36H205.777V8.374H201.385V11.08H205.057V12.094H201.385V14.986H205.777V16H200.317ZM207.219 16V7.36H210.633C210.717 7.36 210.817 7.364 210.933 7.372C211.049 7.376 211.161 7.388 211.269 7.408C211.737 7.48 212.129 7.64 212.445 7.888C212.765 8.136 213.005 8.45 213.165 8.83C213.325 9.206 213.405 9.624 213.405 10.084C213.405 10.752 213.231 11.332 212.883 11.824C212.535 12.312 212.025 12.618 211.353 12.742L210.945 12.808H208.287V16H207.219ZM212.361 16L210.657 12.484L211.713 12.16L213.585 16H212.361ZM208.287 11.794H210.597C210.673 11.794 210.759 11.79 210.855 11.782C210.955 11.774 211.049 11.76 211.137 11.74C211.413 11.676 211.637 11.56 211.809 11.392C211.985 11.22 212.113 11.02 212.193 10.792C212.273 10.56 212.313 10.324 212.313 10.084C212.313 9.844 212.273 9.61 212.193 9.382C212.113 9.15 211.985 8.948 211.809 8.776C211.637 8.604 211.413 8.488 211.137 8.428C211.049 8.404 210.955 8.39 210.855 8.386C210.759 8.378 210.673 8.374 210.597 8.374H208.287V11.794ZM219.583 17.188V15.802H220.651V17.188H219.583ZM219.583 7.558V6.166H220.651V7.558H219.583ZM220.201 16.18C219.617 16.18 219.091 16.076 218.623 15.868C218.159 15.656 217.777 15.358 217.477 14.974C217.177 14.586 216.981 14.13 216.889 13.606L217.939 13.432C218.067 13.964 218.337 14.386 218.749 14.698C219.165 15.01 219.665 15.166 220.249 15.166C220.837 15.166 221.313 15.024 221.677 14.74C222.041 14.456 222.223 14.09 222.223 13.642C222.223 13.314 222.125 13.05 221.929 12.85C221.737 12.65 221.413 12.48 220.957 12.34L218.983 11.728C217.803 11.36 217.213 10.656 217.213 9.616C217.213 9.128 217.331 8.702 217.567 8.338C217.807 7.97 218.141 7.686 218.569 7.486C219.001 7.282 219.503 7.182 220.075 7.186C220.631 7.19 221.127 7.294 221.563 7.498C221.999 7.698 222.359 7.986 222.643 8.362C222.931 8.738 223.125 9.188 223.225 9.712L222.145 9.91C222.089 9.57 221.965 9.272 221.773 9.016C221.585 8.76 221.345 8.562 221.053 8.422C220.761 8.278 220.433 8.204 220.069 8.2C219.729 8.196 219.423 8.252 219.151 8.368C218.883 8.484 218.671 8.646 218.515 8.854C218.359 9.062 218.281 9.3 218.281 9.568C218.281 9.86 218.389 10.108 218.605 10.312C218.825 10.512 219.169 10.684 219.637 10.828L221.257 11.308C221.969 11.52 222.483 11.806 222.799 12.166C223.115 12.522 223.273 12.998 223.273 13.594C223.273 14.11 223.145 14.562 222.889 14.95C222.637 15.338 222.279 15.64 221.815 15.856C221.355 16.072 220.817 16.18 220.201 16.18ZM228.26 16V14.41H224.288V13.396L227.138 7.36H228.35L225.5 13.396H228.26V10.966H229.34V13.396H230.24V14.41H229.34V16H228.26ZM234.592 16.18C234.032 16.18 233.532 16.054 233.092 15.802C232.656 15.546 232.31 15.2 232.054 14.764C231.802 14.324 231.676 13.824 231.676 13.264V10.096C231.676 9.536 231.802 9.036 232.054 8.596C232.31 8.156 232.656 7.81 233.092 7.558C233.532 7.306 234.032 7.18 234.592 7.18C235.152 7.18 235.652 7.306 236.092 7.558C236.532 7.81 236.878 8.156 237.13 8.596C237.382 9.036 237.508 9.536 237.508 10.096V13.264C237.508 13.824 237.382 14.324 237.13 14.764C236.878 15.2 236.532 15.546 236.092 15.802C235.652 16.054 235.152 16.18 234.592 16.18ZM234.592 15.154C234.932 15.154 235.24 15.072 235.516 14.908C235.792 14.744 236.012 14.524 236.176 14.248C236.34 13.968 236.422 13.66 236.422 13.324V10.03C236.422 9.69 236.34 9.382 236.176 9.106C236.012 8.83 235.792 8.61 235.516 8.446C235.24 8.282 234.932 8.2 234.592 8.2C234.256 8.2 233.948 8.282 233.668 8.446C233.392 8.61 233.172 8.83 233.008 9.106C232.844 9.382 232.762 9.69 232.762 10.03V13.324C232.762 13.66 232.844 13.968 233.008 14.248C233.172 14.524 233.392 14.744 233.668 14.908C233.948 15.072 234.256 15.154 234.592 15.154ZM239.38 16V14.824H240.556V16H239.38ZM245.338 16.18C244.778 16.18 244.278 16.054 243.838 15.802C243.402 15.546 243.056 15.2 242.8 14.764C242.548 14.324 242.422 13.824 242.422 13.264V10.096C242.422 9.536 242.548 9.036 242.8 8.596C243.056 8.156 243.402 7.81 243.838 7.558C244.278 7.306 244.778 7.18 245.338 7.18C245.898 7.18 246.398 7.306 246.838 7.558C247.278 7.81 247.624 8.156 247.876 8.596C248.128 9.036 248.254 9.536 248.254 10.096V13.264C248.254 13.824 248.128 14.324 247.876 14.764C247.624 15.2 247.278 15.546 246.838 15.802C246.398 16.054 245.898 16.18 245.338 16.18ZM245.338 15.154C245.678 15.154 245.986 15.072 246.262 14.908C246.538 14.744 246.758 14.524 246.922 14.248C247.086 13.968 247.168 13.66 247.168 13.324V10.03C247.168 9.69 247.086 9.382 246.922 9.106C246.758 8.83 246.538 8.61 246.262 8.446C245.986 8.282 245.678 8.2 245.338 8.2C245.002 8.2 244.694 8.282 244.414 8.446C244.138 8.61 243.918 8.83 243.754 9.106C243.59 9.382 243.508 9.69 243.508 10.03V13.324C243.508 13.66 243.59 13.968 243.754 14.248C243.918 14.524 244.138 14.744 244.414 14.908C244.694 15.072 245.002 15.154 245.338 15.154ZM252.85 16.18C252.29 16.18 251.79 16.054 251.35 15.802C250.914 15.546 250.568 15.2 250.312 14.764C250.06 14.324 249.934 13.824 249.934 13.264V10.096C249.934 9.536 250.06 9.036 250.312 8.596C250.568 8.156 250.914 7.81 251.35 7.558C251.79 7.306 252.29 7.18 252.85 7.18C253.41 7.18 253.91 7.306 254.35 7.558C254.79 7.81 255.136 8.156 255.388 8.596C255.64 9.036 255.766 9.536 255.766 10.096V13.264C255.766 13.824 255.64 14.324 255.388 14.764C255.136 15.2 254.79 15.546 254.35 15.802C253.91 16.054 253.41 16.18 252.85 16.18ZM252.85 15.154C253.19 15.154 253.498 15.072 253.774 14.908C254.05 14.744 254.27 14.524 254.434 14.248C254.598 13.968 254.68 13.66 254.68 13.324V10.03C254.68 9.69 254.598 9.382 254.434 9.106C254.27 8.83 254.05 8.61 253.774 8.446C253.498 8.282 253.19 8.2 252.85 8.2C252.514 8.2 252.206 8.282 251.926 8.446C251.65 8.61 251.43 8.83 251.266 9.106C251.102 9.382 251.02 9.69 251.02 10.03V13.324C251.02 13.66 251.102 13.968 251.266 14.248C251.43 14.524 251.65 14.744 251.926 14.908C252.206 15.072 252.514 15.154 252.85 15.154Z" fill="white"/>
</svg>
