<svg width="192" height="22" viewBox="0 0 192 22" fill="none" xmlns="http://www.w3.org/2000/svg">
<path d="M10.9314 17.1698L11.002 17.234L11.0694 17.1665L11.1593 17.0766C13.3384 15.1035 15.1537 13.4584 16.4234 11.9748C17.6925 10.4919 18.432 9.15316 18.432 7.79167C18.432 5.9031 17.0123 4.48333 15.1237 4.48333C13.6972 4.48333 12.3065 5.39227 11.7837 6.64667H10.2137C9.69089 5.39227 8.30021 4.48333 6.8737 4.48333C4.98514 4.48333 3.56536 5.9031 3.56536 7.79167C3.56536 9.15315 4.30486 10.4919 5.5728 11.9748C6.84152 13.4586 8.65483 15.1039 10.8297 17.0774L10.8306 17.0782L10.8307 17.0782L10.9314 17.1698ZM10.9228 4.72179L10.9987 4.81021L11.0746 4.72179C12.0555 3.57895 13.5589 2.85 15.1237 2.85C17.8919 2.85 20.0654 5.01451 20.0654 7.79167C20.0654 9.48671 19.3019 11.0368 17.9395 12.7036C16.576 14.3717 14.6231 16.1446 12.2607 18.2868L12.2605 18.2869L10.9987 19.4356L9.73685 18.2869L9.73671 18.2868C7.37432 16.1446 5.4214 14.3717 4.0579 12.7036C2.69549 11.0368 1.93203 9.48671 1.93203 7.79167C1.93203 5.01451 4.10547 2.85 6.8737 2.85C8.43847 2.85 9.94194 3.57895 10.9228 4.72179Z" fill="white" stroke="white" stroke-width="0.2"/>
<path d="M33.396 16.18C32.952 16.18 32.538 16.088 32.154 15.904C31.774 15.72 31.448 15.468 31.176 15.148C30.908 14.824 30.716 14.452 30.6 14.032L31.626 13.756C31.698 14.04 31.826 14.286 32.01 14.494C32.194 14.698 32.408 14.858 32.652 14.974C32.9 15.086 33.158 15.142 33.426 15.142C33.778 15.142 34.094 15.058 34.374 14.89C34.658 14.718 34.882 14.492 35.046 14.212C35.21 13.928 35.292 13.618 35.292 13.282C35.292 12.934 35.206 12.62 35.034 12.34C34.866 12.056 34.64 11.832 34.356 11.668C34.072 11.504 33.762 11.422 33.426 11.422C33.046 11.422 32.72 11.502 32.448 11.662C32.18 11.818 31.968 12.01 31.812 12.238L30.864 11.878L31.128 7.36H35.766V8.374H31.644L32.118 7.93L31.896 11.548L31.662 11.242C31.902 10.986 32.188 10.788 32.52 10.648C32.856 10.508 33.198 10.438 33.546 10.438C34.082 10.438 34.562 10.564 34.986 10.816C35.41 11.064 35.746 11.404 35.994 11.836C36.242 12.264 36.366 12.746 36.366 13.282C36.366 13.814 36.23 14.3 35.958 14.74C35.686 15.176 35.324 15.526 34.872 15.79C34.424 16.05 33.932 16.18 33.396 16.18ZM40.7169 16.18C40.1569 16.18 39.6569 16.054 39.2169 15.802C38.7809 15.546 38.4349 15.2 38.1789 14.764C37.9269 14.324 37.8009 13.824 37.8009 13.264V10.096C37.8009 9.536 37.9269 9.036 38.1789 8.596C38.4349 8.156 38.7809 7.81 39.2169 7.558C39.6569 7.306 40.1569 7.18 40.7169 7.18C41.2769 7.18 41.7769 7.306 42.2169 7.558C42.6569 7.81 43.0029 8.156 43.2549 8.596C43.5069 9.036 43.6329 9.536 43.6329 10.096V13.264C43.6329 13.824 43.5069 14.324 43.2549 14.764C43.0029 15.2 42.6569 15.546 42.2169 15.802C41.7769 16.054 41.2769 16.18 40.7169 16.18ZM40.7169 15.154C41.0569 15.154 41.3649 15.072 41.6409 14.908C41.9169 14.744 42.1369 14.524 42.3009 14.248C42.4649 13.968 42.5469 13.66 42.5469 13.324V10.03C42.5469 9.69 42.4649 9.382 42.3009 9.106C42.1369 8.83 41.9169 8.61 41.6409 8.446C41.3649 8.282 41.0569 8.2 40.7169 8.2C40.3809 8.2 40.0729 8.282 39.7929 8.446C39.5169 8.61 39.2969 8.83 39.1329 9.106C38.9689 9.382 38.8869 9.69 38.8869 10.03V13.324C38.8869 13.66 38.9689 13.968 39.1329 14.248C39.2969 14.524 39.5169 14.744 39.7929 14.908C40.0729 15.072 40.3809 15.154 40.7169 15.154ZM45.5047 16V14.824H46.6807V16H45.5047ZM51.463 16.18C50.903 16.18 50.403 16.054 49.963 15.802C49.527 15.546 49.181 15.2 48.925 14.764C48.673 14.324 48.547 13.824 48.547 13.264V10.096C48.547 9.536 48.673 9.036 48.925 8.596C49.181 8.156 49.527 7.81 49.963 7.558C50.403 7.306 50.903 7.18 51.463 7.18C52.023 7.18 52.523 7.306 52.963 7.558C53.403 7.81 53.749 8.156 54.001 8.596C54.253 9.036 54.379 9.536 54.379 10.096V13.264C54.379 13.824 54.253 14.324 54.001 14.764C53.749 15.2 53.403 15.546 52.963 15.802C52.523 16.054 52.023 16.18 51.463 16.18ZM51.463 15.154C51.803 15.154 52.111 15.072 52.387 14.908C52.663 14.744 52.883 14.524 53.047 14.248C53.211 13.968 53.293 13.66 53.293 13.324V10.03C53.293 9.69 53.211 9.382 53.047 9.106C52.883 8.83 52.663 8.61 52.387 8.446C52.111 8.282 51.803 8.2 51.463 8.2C51.127 8.2 50.819 8.282 50.539 8.446C50.263 8.61 50.043 8.83 49.879 9.106C49.715 9.382 49.633 9.69 49.633 10.03V13.324C49.633 13.66 49.715 13.968 49.879 14.248C50.043 14.524 50.263 14.744 50.539 14.908C50.819 15.072 51.127 15.154 51.463 15.154ZM58.9748 16.18C58.4148 16.18 57.9148 16.054 57.4748 15.802C57.0388 15.546 56.6928 15.2 56.4368 14.764C56.1848 14.324 56.0588 13.824 56.0588 13.264V10.096C56.0588 9.536 56.1848 9.036 56.4368 8.596C56.6928 8.156 57.0388 7.81 57.4748 7.558C57.9148 7.306 58.4148 7.18 58.9748 7.18C59.5348 7.18 60.0348 7.306 60.4748 7.558C60.9148 7.81 61.2608 8.156 61.5128 8.596C61.7648 9.036 61.8908 9.536 61.8908 10.096V13.264C61.8908 13.824 61.7648 14.324 61.5128 14.764C61.2608 15.2 60.9148 15.546 60.4748 15.802C60.0348 16.054 59.5348 16.18 58.9748 16.18ZM58.9748 15.154C59.3148 15.154 59.6228 15.072 59.8988 14.908C60.1748 14.744 60.3948 14.524 60.5588 14.248C60.7228 13.968 60.8048 13.66 60.8048 13.324V10.03C60.8048 9.69 60.7228 9.382 60.5588 9.106C60.3948 8.83 60.1748 8.61 59.8988 8.446C59.6228 8.282 59.3148 8.2 58.9748 8.2C58.6388 8.2 58.3308 8.282 58.0508 8.446C57.7748 8.61 57.5548 8.83 57.3908 9.106C57.2268 9.382 57.1448 9.69 57.1448 10.03V13.324C57.1448 13.66 57.2268 13.968 57.3908 14.248C57.5548 14.524 57.7748 14.744 58.0508 14.908C58.3308 15.072 58.6388 15.154 58.9748 15.154ZM66.4865 16.18C65.9265 16.18 65.4265 16.054 64.9865 15.802C64.5505 15.546 64.2045 15.2 63.9485 14.764C63.6965 14.324 63.5705 13.824 63.5705 13.264V10.096C63.5705 9.536 63.6965 9.036 63.9485 8.596C64.2045 8.156 64.5505 7.81 64.9865 7.558C65.4265 7.306 65.9265 7.18 66.4865 7.18C67.0465 7.18 67.5465 7.306 67.9865 7.558C68.4265 7.81 68.7725 8.156 69.0245 8.596C69.2765 9.036 69.4025 9.536 69.4025 10.096V13.264C69.4025 13.824 69.2765 14.324 69.0245 14.764C68.7725 15.2 68.4265 15.546 67.9865 15.802C67.5465 16.054 67.0465 16.18 66.4865 16.18ZM66.4865 15.154C66.8265 15.154 67.1345 15.072 67.4105 14.908C67.6865 14.744 67.9065 14.524 68.0705 14.248C68.2345 13.968 68.3165 13.66 68.3165 13.324V10.03C68.3165 9.69 68.2345 9.382 68.0705 9.106C67.9065 8.83 67.6865 8.61 67.4105 8.446C67.1345 8.282 66.8265 8.2 66.4865 8.2C66.1505 8.2 65.8425 8.282 65.5625 8.446C65.2865 8.61 65.0665 8.83 64.9025 9.106C64.7385 9.382 64.6565 9.69 64.6565 10.03V13.324C64.6565 13.66 64.7385 13.968 64.9025 14.248C65.0665 14.524 65.2865 14.744 65.5625 14.908C65.8425 15.072 66.1505 15.154 66.4865 15.154ZM73.2542 14.41V12.118H70.9622V11.236H73.2542V8.95H74.1362V11.236H76.4222V12.118H74.1362V14.41H73.2542ZM80.3869 16V7.36H81.4549V11.17H86.0029V7.36H87.0709V16H86.0029V12.184H81.4549V16H80.3869ZM88.1541 16L91.0461 7.36H92.5341L95.4261 16H94.3161L91.6101 7.984H91.9461L89.2641 16H88.1541ZM89.5461 13.978V12.976H94.0341V13.978H89.5461ZM96.5002 16V7.36H99.9142C99.9982 7.36 100.098 7.364 100.214 7.372C100.33 7.376 100.442 7.388 100.55 7.408C101.018 7.48 101.41 7.64 101.726 7.888C102.046 8.136 102.286 8.45 102.446 8.83C102.606 9.206 102.686 9.624 102.686 10.084C102.686 10.54 102.604 10.958 102.44 11.338C102.28 11.714 102.04 12.028 101.72 12.28C101.404 12.528 101.014 12.688 100.55 12.76C100.442 12.776 100.33 12.788 100.214 12.796C100.098 12.804 99.9982 12.808 99.9142 12.808H97.5682V16H96.5002ZM97.5682 11.794H99.8782C99.9542 11.794 100.04 11.79 100.136 11.782C100.236 11.774 100.33 11.76 100.418 11.74C100.694 11.676 100.918 11.56 101.09 11.392C101.266 11.22 101.394 11.02 101.474 10.792C101.554 10.56 101.594 10.324 101.594 10.084C101.594 9.844 101.554 9.61 101.474 9.382C101.394 9.15 101.266 8.948 101.09 8.776C100.918 8.604 100.694 8.488 100.418 8.428C100.33 8.404 100.236 8.39 100.136 8.386C100.04 8.378 99.9542 8.374 99.8782 8.374H97.5682V11.794ZM103.883 16V7.36H107.297C107.381 7.36 107.481 7.364 107.597 7.372C107.713 7.376 107.825 7.388 107.933 7.408C108.401 7.48 108.793 7.64 109.109 7.888C109.429 8.136 109.669 8.45 109.829 8.83C109.989 9.206 110.069 9.624 110.069 10.084C110.069 10.54 109.987 10.958 109.823 11.338C109.663 11.714 109.423 12.028 109.103 12.28C108.787 12.528 108.397 12.688 107.933 12.76C107.825 12.776 107.713 12.788 107.597 12.796C107.481 12.804 107.381 12.808 107.297 12.808H104.951V16H103.883ZM104.951 11.794H107.261C107.337 11.794 107.423 11.79 107.519 11.782C107.619 11.774 107.713 11.76 107.801 11.74C108.077 11.676 108.301 11.56 108.473 11.392C108.649 11.22 108.777 11.02 108.857 10.792C108.937 10.56 108.977 10.324 108.977 10.084C108.977 9.844 108.937 9.61 108.857 9.382C108.777 9.15 108.649 8.948 108.473 8.776C108.301 8.604 108.077 8.488 107.801 8.428C107.713 8.404 107.619 8.39 107.519 8.386C107.423 8.378 107.337 8.374 107.261 8.374H104.951V11.794ZM113.336 16V12.406L110.426 7.36H111.668L113.876 11.182L116.078 7.36H117.32L114.416 12.406V16H113.336ZM123.63 16.18C122.77 16.18 122.04 15.99 121.44 15.61C120.84 15.23 120.382 14.702 120.066 14.026C119.754 13.35 119.598 12.568 119.598 11.68C119.598 10.792 119.754 10.01 120.066 9.334C120.382 8.658 120.84 8.13 121.44 7.75C122.04 7.37 122.77 7.18 123.63 7.18C124.63 7.18 125.452 7.434 126.096 7.942C126.744 8.45 127.19 9.134 127.434 9.994L126.348 10.282C126.172 9.638 125.858 9.13 125.406 8.758C124.954 8.386 124.362 8.2 123.63 8.2C122.986 8.2 122.45 8.346 122.022 8.638C121.594 8.93 121.272 9.338 121.056 9.862C120.84 10.382 120.73 10.988 120.726 11.68C120.722 12.368 120.828 12.974 121.044 13.498C121.26 14.018 121.584 14.426 122.016 14.722C122.448 15.014 122.986 15.16 123.63 15.16C124.362 15.16 124.954 14.974 125.406 14.602C125.858 14.226 126.172 13.718 126.348 13.078L127.434 13.366C127.19 14.222 126.744 14.906 126.096 15.418C125.452 15.926 124.63 16.18 123.63 16.18ZM132.158 16.18C131.49 16.18 130.9 16.042 130.388 15.766C129.876 15.49 129.474 15.104 129.182 14.608C128.894 14.108 128.75 13.522 128.75 12.85V7.366L129.83 7.36V12.76C129.83 13.168 129.898 13.524 130.034 13.828C130.174 14.128 130.358 14.378 130.586 14.578C130.814 14.778 131.064 14.928 131.336 15.028C131.612 15.124 131.886 15.172 132.158 15.172C132.434 15.172 132.71 15.122 132.986 15.022C133.262 14.922 133.512 14.774 133.736 14.578C133.964 14.378 134.146 14.126 134.282 13.822C134.418 13.518 134.486 13.164 134.486 12.76V7.36H135.566V12.85C135.566 13.518 135.42 14.102 135.128 14.602C134.84 15.102 134.44 15.49 133.928 15.766C133.416 16.042 132.826 16.18 132.158 16.18ZM139.949 16.18C139.337 16.18 138.785 16.076 138.293 15.868C137.805 15.66 137.401 15.364 137.081 14.98C136.765 14.592 136.559 14.134 136.463 13.606L137.567 13.432C137.707 13.976 137.997 14.402 138.437 14.71C138.881 15.014 139.403 15.166 140.003 15.166C140.391 15.166 140.741 15.106 141.053 14.986C141.369 14.862 141.619 14.686 141.803 14.458C141.987 14.23 142.079 13.96 142.079 13.648C142.079 13.456 142.045 13.292 141.977 13.156C141.913 13.016 141.823 12.898 141.707 12.802C141.595 12.702 141.467 12.618 141.323 12.55C141.179 12.482 141.029 12.426 140.873 12.382L138.671 11.728C138.431 11.656 138.199 11.566 137.975 11.458C137.751 11.346 137.551 11.208 137.375 11.044C137.199 10.876 137.059 10.676 136.955 10.444C136.851 10.208 136.799 9.93 136.799 9.61C136.799 9.098 136.931 8.662 137.195 8.302C137.463 7.938 137.825 7.66 138.281 7.468C138.737 7.276 139.251 7.182 139.823 7.186C140.403 7.19 140.921 7.294 141.377 7.498C141.837 7.698 142.217 7.986 142.517 8.362C142.821 8.738 143.025 9.188 143.129 9.712L141.995 9.91C141.935 9.558 141.801 9.256 141.593 9.004C141.389 8.748 141.133 8.552 140.825 8.416C140.517 8.276 140.179 8.204 139.811 8.2C139.459 8.196 139.141 8.252 138.857 8.368C138.573 8.484 138.347 8.646 138.179 8.854C138.011 9.058 137.927 9.294 137.927 9.562C137.927 9.826 138.003 10.04 138.155 10.204C138.307 10.364 138.493 10.492 138.713 10.588C138.937 10.68 139.155 10.756 139.367 10.816L141.011 11.29C141.199 11.342 141.415 11.414 141.659 11.506C141.907 11.598 142.147 11.728 142.379 11.896C142.611 12.06 142.803 12.28 142.955 12.556C143.107 12.828 143.183 13.172 143.183 13.588C143.183 14.004 143.099 14.374 142.931 14.698C142.767 15.022 142.537 15.294 142.241 15.514C141.945 15.73 141.601 15.894 141.209 16.006C140.817 16.122 140.397 16.18 139.949 16.18ZM146.668 16V8.374H143.722V7.36H150.682V8.374H147.736V16H146.668ZM155.189 16.18C154.329 16.18 153.599 15.99 152.999 15.61C152.399 15.23 151.941 14.702 151.625 14.026C151.313 13.35 151.157 12.568 151.157 11.68C151.157 10.792 151.313 10.01 151.625 9.334C151.941 8.658 152.399 8.13 152.999 7.75C153.599 7.37 154.329 7.18 155.189 7.18C156.053 7.18 156.785 7.37 157.385 7.75C157.985 8.13 158.441 8.658 158.753 9.334C159.065 10.01 159.221 10.792 159.221 11.68C159.221 12.568 159.065 13.35 158.753 14.026C158.441 14.702 157.985 15.23 157.385 15.61C156.785 15.99 156.053 16.18 155.189 16.18ZM155.189 15.16C155.833 15.164 156.369 15.02 156.797 14.728C157.229 14.432 157.551 14.022 157.763 13.498C157.979 12.974 158.087 12.368 158.087 11.68C158.087 10.988 157.979 10.382 157.763 9.862C157.551 9.342 157.229 8.936 156.797 8.644C156.369 8.352 155.833 8.204 155.189 8.2C154.545 8.196 154.009 8.34 153.581 8.632C153.157 8.924 152.837 9.332 152.621 9.856C152.405 10.38 152.295 10.988 152.291 11.68C152.287 12.368 152.393 12.972 152.609 13.492C152.825 14.012 153.147 14.42 153.575 14.716C154.007 15.008 154.545 15.156 155.189 15.16ZM160.426 16V7.36H161.398L164.662 14.242L167.908 7.36H168.892V15.994H167.878V9.706L164.944 16H164.374L161.44 9.706V16H160.426ZM170.574 16V7.36H176.034V8.374H171.642V11.08H175.314V12.094H171.642V14.986H176.034V16H170.574ZM177.477 16V7.36H180.891C180.975 7.36 181.075 7.364 181.191 7.372C181.307 7.376 181.419 7.388 181.527 7.408C181.995 7.48 182.387 7.64 182.703 7.888C183.023 8.136 183.263 8.45 183.423 8.83C183.583 9.206 183.663 9.624 183.663 10.084C183.663 10.752 183.489 11.332 183.141 11.824C182.793 12.312 182.283 12.618 181.611 12.742L181.203 12.808H178.545V16H177.477ZM182.619 16L180.915 12.484L181.971 12.16L183.843 16H182.619ZM178.545 11.794H180.855C180.931 11.794 181.017 11.79 181.113 11.782C181.213 11.774 181.307 11.76 181.395 11.74C181.671 11.676 181.895 11.56 182.067 11.392C182.243 11.22 182.371 11.02 182.451 10.792C182.531 10.56 182.571 10.324 182.571 10.084C182.571 9.844 182.531 9.61 182.451 9.382C182.371 9.15 182.243 8.948 182.067 8.776C181.895 8.604 181.671 8.488 181.395 8.428C181.307 8.404 181.213 8.39 181.113 8.386C181.017 8.378 180.931 8.374 180.855 8.374H178.545V11.794ZM188.23 16.18C187.618 16.18 187.066 16.076 186.574 15.868C186.086 15.66 185.682 15.364 185.362 14.98C185.046 14.592 184.84 14.134 184.744 13.606L185.848 13.432C185.988 13.976 186.278 14.402 186.718 14.71C187.162 15.014 187.684 15.166 188.284 15.166C188.672 15.166 189.022 15.106 189.334 14.986C189.65 14.862 189.9 14.686 190.084 14.458C190.268 14.23 190.36 13.96 190.36 13.648C190.36 13.456 190.326 13.292 190.258 13.156C190.194 13.016 190.104 12.898 189.988 12.802C189.876 12.702 189.748 12.618 189.604 12.55C189.46 12.482 189.31 12.426 189.154 12.382L186.952 11.728C186.712 11.656 186.48 11.566 186.256 11.458C186.032 11.346 185.832 11.208 185.656 11.044C185.48 10.876 185.34 10.676 185.236 10.444C185.132 10.208 185.08 9.93 185.08 9.61C185.08 9.098 185.212 8.662 185.476 8.302C185.744 7.938 186.106 7.66 186.562 7.468C187.018 7.276 187.532 7.182 188.104 7.186C188.684 7.19 189.202 7.294 189.658 7.498C190.118 7.698 190.498 7.986 190.798 8.362C191.102 8.738 191.306 9.188 191.41 9.712L190.276 9.91C190.216 9.558 190.082 9.256 189.874 9.004C189.67 8.748 189.414 8.552 189.106 8.416C188.798 8.276 188.46 8.204 188.092 8.2C187.74 8.196 187.422 8.252 187.138 8.368C186.854 8.484 186.628 8.646 186.46 8.854C186.292 9.058 186.208 9.294 186.208 9.562C186.208 9.826 186.284 10.04 186.436 10.204C186.588 10.364 186.774 10.492 186.994 10.588C187.218 10.68 187.436 10.756 187.648 10.816L189.292 11.29C189.48 11.342 189.696 11.414 189.94 11.506C190.188 11.598 190.428 11.728 190.66 11.896C190.892 12.06 191.084 12.28 191.236 12.556C191.388 12.828 191.464 13.172 191.464 13.588C191.464 14.004 191.38 14.374 191.212 14.698C191.048 15.022 190.818 15.294 190.522 15.514C190.226 15.73 189.882 15.894 189.49 16.006C189.098 16.122 188.678 16.18 188.23 16.18Z" fill="white"/>
</svg>
