<svg width="209" height="22" viewBox="0 0 209 22" fill="none" xmlns="http://www.w3.org/2000/svg">
<path d="M12.5562 3.9985C12.6593 3.89536 12.7173 3.75549 12.7173 3.60965C12.7173 3.46381 12.6593 3.32394 12.5562 3.2208L10.2231 0.887698C10.1194 0.787511 9.98047 0.732075 9.83626 0.733328C9.69206 0.734581 9.55411 0.792424 9.45214 0.894398C9.35016 0.996373 9.29232 1.13432 9.29106 1.27853C9.28981 1.42274 9.34525 1.56167 9.44544 1.6654L10.5421 2.7621C8.85129 2.85608 7.23032 3.46813 5.89932 4.51513C4.56831 5.56214 3.59175 6.99338 3.10221 8.61454C2.61268 10.2357 2.6339 11.9682 3.16298 13.5769C3.69207 15.1856 4.70339 16.5925 6.05963 17.6066C6.17633 17.6941 6.32301 17.7317 6.46742 17.7111C6.61182 17.6904 6.74211 17.6133 6.82964 17.4966C6.91716 17.3799 6.95474 17.2332 6.93411 17.0888C6.91348 16.9444 6.83633 16.8141 6.71964 16.7266C5.41064 15.7481 4.47637 14.3507 4.07242 12.7671C3.66847 11.1835 3.81922 9.50929 4.49956 8.02332C5.17991 6.53736 6.34879 5.32932 7.81153 4.60039C9.27427 3.87146 10.9426 3.66564 12.5386 4.0172L12.5562 3.9985ZM9.44544 17.9993L9.46304 17.9817C9.91184 18.0807 10.3771 18.1357 10.8534 18.1467L10.8468 18.1533C10.8738 18.1498 10.901 18.1484 10.9282 18.1489C12.4361 18.1646 13.9104 17.703 15.1402 16.8304C16.3701 15.9577 17.2925 14.7185 17.7756 13.29C18.2587 11.8615 18.2778 10.3168 17.8302 8.87676C17.3825 7.43674 16.491 6.17513 15.2831 5.2723C15.2254 5.22896 15.1767 5.17467 15.1399 5.11252C15.1031 5.05037 15.0789 4.98158 15.0687 4.91008C15.0584 4.83858 15.0624 4.76577 15.0803 4.6958C15.0983 4.62583 15.1298 4.56008 15.1731 4.5023C15.2165 4.44452 15.2708 4.39584 15.3329 4.35904C15.3951 4.32224 15.4639 4.29804 15.5354 4.28783C15.6069 4.27761 15.6797 4.28158 15.7496 4.29951C15.8196 4.31743 15.8854 4.34896 15.9431 4.3923C17.2994 5.4064 18.3107 6.81329 18.8398 8.42198C19.3689 10.0307 19.3901 11.7632 18.9006 13.3844C18.411 15.0055 17.4345 16.4368 16.1035 17.4838C14.7724 18.5308 13.1515 19.1428 11.4606 19.2368L12.5562 20.3324C12.6088 20.3831 12.6507 20.4438 12.6795 20.5109C12.7083 20.578 12.7235 20.6502 12.7241 20.7232C12.7248 20.7963 12.7108 20.8687 12.6832 20.9363C12.6555 21.0039 12.6147 21.0653 12.5631 21.1169C12.5114 21.1686 12.45 21.2094 12.3824 21.2371C12.3148 21.2647 12.2424 21.2786 12.1694 21.278C12.0963 21.2774 12.0242 21.2622 11.9571 21.2334C11.89 21.2045 11.8293 21.1626 11.7785 21.1101L9.44544 18.7781C9.39422 18.727 9.35358 18.6663 9.32585 18.5995C9.29812 18.5327 9.28385 18.461 9.28385 18.3887C9.28385 18.3164 9.29812 18.2447 9.32585 18.1779C9.35358 18.1111 9.39422 18.0504 9.44544 17.9993ZM13.5902 8.9595C13.6415 9.01059 13.6821 9.07128 13.7098 9.1381C13.7375 9.20492 13.7518 9.27655 13.7518 9.3489C13.7518 9.42124 13.7375 9.49288 13.7098 9.5597C13.6821 9.62652 13.6415 9.68721 13.5902 9.7383L10.2902 13.0383C10.2391 13.0895 10.1785 13.1302 10.1116 13.1579C10.0448 13.1856 9.97318 13.1999 9.90084 13.1999C9.82849 13.1999 9.75686 13.1856 9.69004 13.1579C9.62322 13.1302 9.56253 13.0895 9.51144 13.0383L7.86143 11.3883C7.75816 11.285 7.70014 11.145 7.70014 10.9989C7.70014 10.8528 7.75816 10.7128 7.86143 10.6095C7.96471 10.5062 8.10478 10.4482 8.25083 10.4482C8.39689 10.4482 8.53696 10.5062 8.64024 10.6095L9.90084 11.8712L12.8114 8.9595C12.8625 8.90828 12.9232 8.86764 12.99 8.83991C13.0569 8.81219 13.1285 8.79792 13.2008 8.79792C13.2732 8.79792 13.3448 8.81219 13.4116 8.83991C13.4785 8.86764 13.5391 8.90828 13.5902 8.9595ZM5.50084 11C5.50084 9.54131 6.0803 8.14236 7.11175 7.11091C8.1432 6.07946 9.54214 5.5 11.0008 5.5C12.4595 5.5 13.8585 6.07946 14.8899 7.11091C15.9214 8.14236 16.5008 9.54131 16.5008 11C16.5008 12.4587 15.9214 13.8576 14.8899 14.8891C13.8585 15.9205 12.4595 16.5 11.0008 16.5C9.54214 16.5 8.1432 15.9205 7.11175 14.8891C6.0803 13.8576 5.50084 12.4587 5.50084 11ZM11.0008 6.6C9.83388 6.6 8.71473 7.06357 7.88956 7.88873C7.0644 8.71389 6.60084 9.83305 6.60084 11C6.60084 12.167 7.0644 13.2861 7.88956 14.1113C8.71473 14.9364 9.83388 15.4 11.0008 15.4C12.1678 15.4 13.2869 14.9364 14.1121 14.1113C14.9373 13.2861 15.4008 12.167 15.4008 11C15.4008 9.83305 14.9373 8.71389 14.1121 7.88873C13.2869 7.06357 12.1678 6.6 11.0008 6.6Z" fill="white"/>
<path d="M32.346 16V8.542L30.72 9.526V8.332L32.346 7.36H33.432V16H32.346ZM38.631 16.18C38.071 16.18 37.571 16.054 37.131 15.802C36.695 15.546 36.349 15.2 36.093 14.764C35.841 14.324 35.715 13.824 35.715 13.264V10.096C35.715 9.536 35.841 9.036 36.093 8.596C36.349 8.156 36.695 7.81 37.131 7.558C37.571 7.306 38.071 7.18 38.631 7.18C39.191 7.18 39.691 7.306 40.131 7.558C40.571 7.81 40.917 8.156 41.169 8.596C41.421 9.036 41.547 9.536 41.547 10.096V13.264C41.547 13.824 41.421 14.324 41.169 14.764C40.917 15.2 40.571 15.546 40.131 15.802C39.691 16.054 39.191 16.18 38.631 16.18ZM38.631 15.154C38.971 15.154 39.279 15.072 39.555 14.908C39.831 14.744 40.051 14.524 40.215 14.248C40.379 13.968 40.461 13.66 40.461 13.324V10.03C40.461 9.69 40.379 9.382 40.215 9.106C40.051 8.83 39.831 8.61 39.555 8.446C39.279 8.282 38.971 8.2 38.631 8.2C38.295 8.2 37.987 8.282 37.707 8.446C37.431 8.61 37.211 8.83 37.047 9.106C36.883 9.382 36.801 9.69 36.801 10.03V13.324C36.801 13.66 36.883 13.968 37.047 14.248C37.211 14.524 37.431 14.744 37.707 14.908C37.987 15.072 38.295 15.154 38.631 15.154ZM46.1427 16.18C45.5827 16.18 45.0827 16.054 44.6427 15.802C44.2067 15.546 43.8607 15.2 43.6047 14.764C43.3527 14.324 43.2267 13.824 43.2267 13.264V10.096C43.2267 9.536 43.3527 9.036 43.6047 8.596C43.8607 8.156 44.2067 7.81 44.6427 7.558C45.0827 7.306 45.5827 7.18 46.1427 7.18C46.7027 7.18 47.2027 7.306 47.6427 7.558C48.0827 7.81 48.4287 8.156 48.6807 8.596C48.9327 9.036 49.0587 9.536 49.0587 10.096V13.264C49.0587 13.824 48.9327 14.324 48.6807 14.764C48.4287 15.2 48.0827 15.546 47.6427 15.802C47.2027 16.054 46.7027 16.18 46.1427 16.18ZM46.1427 15.154C46.4827 15.154 46.7907 15.072 47.0667 14.908C47.3427 14.744 47.5627 14.524 47.7267 14.248C47.8907 13.968 47.9727 13.66 47.9727 13.324V10.03C47.9727 9.69 47.8907 9.382 47.7267 9.106C47.5627 8.83 47.3427 8.61 47.0667 8.446C46.7907 8.282 46.4827 8.2 46.1427 8.2C45.8067 8.2 45.4987 8.282 45.2187 8.446C44.9427 8.61 44.7227 8.83 44.5587 9.106C44.3947 9.382 44.3127 9.69 44.3127 10.03V13.324C44.3127 13.66 44.3947 13.968 44.5587 14.248C44.7227 14.524 44.9427 14.744 45.2187 14.908C45.4987 15.072 45.8067 15.154 46.1427 15.154ZM51.6984 16L50.9784 15.28L58.9104 7.36L59.6304 8.08L51.6984 16ZM57.8304 16.18C57.4344 16.18 57.0724 16.084 56.7444 15.892C56.4204 15.696 56.1604 15.436 55.9644 15.112C55.7684 14.784 55.6704 14.42 55.6704 14.02C55.6704 13.628 55.7704 13.268 55.9704 12.94C56.1704 12.612 56.4344 12.35 56.7624 12.154C57.0904 11.958 57.4464 11.86 57.8304 11.86C58.2264 11.86 58.5884 11.958 58.9164 12.154C59.2444 12.346 59.5044 12.606 59.6964 12.934C59.8924 13.258 59.9904 13.62 59.9904 14.02C59.9904 14.42 59.8924 14.784 59.6964 15.112C59.5044 15.436 59.2444 15.696 58.9164 15.892C58.5884 16.084 58.2264 16.18 57.8304 16.18ZM57.8304 15.238C58.0504 15.238 58.2524 15.182 58.4364 15.07C58.6244 14.958 58.7724 14.81 58.8804 14.626C58.9924 14.442 59.0484 14.24 59.0484 14.02C59.0484 13.8 58.9924 13.598 58.8804 13.414C58.7724 13.226 58.6244 13.078 58.4364 12.97C58.2524 12.858 58.0504 12.802 57.8304 12.802C57.6104 12.802 57.4084 12.858 57.2244 12.97C57.0404 13.078 56.8924 13.226 56.7804 13.414C56.6684 13.598 56.6124 13.8 56.6124 14.02C56.6124 14.24 56.6684 14.442 56.7804 14.626C56.8924 14.81 57.0404 14.958 57.2244 15.07C57.4084 15.182 57.6104 15.238 57.8304 15.238ZM52.7784 11.5C52.3824 11.5 52.0204 11.404 51.6924 11.212C51.3644 11.016 51.1024 10.756 50.9064 10.432C50.7144 10.104 50.6184 9.74 50.6184 9.34C50.6184 8.948 50.7184 8.588 50.9184 8.26C51.1184 7.932 51.3824 7.67 51.7104 7.474C52.0384 7.278 52.3944 7.18 52.7784 7.18C53.1744 7.18 53.5344 7.278 53.8584 7.474C54.1864 7.666 54.4484 7.926 54.6444 8.254C54.8404 8.578 54.9384 8.94 54.9384 9.34C54.9384 9.74 54.8404 10.104 54.6444 10.432C54.4484 10.756 54.1864 11.016 53.8584 11.212C53.5344 11.404 53.1744 11.5 52.7784 11.5ZM52.7784 10.558C52.9984 10.558 53.2004 10.502 53.3844 10.39C53.5724 10.278 53.7204 10.13 53.8284 9.946C53.9404 9.762 53.9964 9.56 53.9964 9.34C53.9964 9.12 53.9404 8.918 53.8284 8.734C53.7204 8.546 53.5724 8.398 53.3844 8.29C53.2004 8.178 52.9984 8.122 52.7784 8.122C52.5584 8.122 52.3564 8.178 52.1724 8.29C51.9884 8.398 51.8404 8.546 51.7284 8.734C51.6164 8.918 51.5604 9.12 51.5604 9.34C51.5604 9.56 51.6164 9.762 51.7284 9.946C51.8404 10.13 51.9884 10.278 52.1724 10.39C52.3564 10.502 52.5584 10.558 52.7784 10.558ZM63.9572 16V7.36H64.9292L68.1932 14.242L71.4392 7.36H72.4232V15.994H71.4092V9.706L68.4752 16H67.9052L64.9712 9.706V16H63.9572ZM77.6576 16.18C76.7976 16.18 76.0676 15.99 75.4676 15.61C74.8676 15.23 74.4096 14.702 74.0936 14.026C73.7816 13.35 73.6256 12.568 73.6256 11.68C73.6256 10.792 73.7816 10.01 74.0936 9.334C74.4096 8.658 74.8676 8.13 75.4676 7.75C76.0676 7.37 76.7976 7.18 77.6576 7.18C78.5216 7.18 79.2536 7.37 79.8536 7.75C80.4536 8.13 80.9096 8.658 81.2216 9.334C81.5336 10.01 81.6896 10.792 81.6896 11.68C81.6896 12.568 81.5336 13.35 81.2216 14.026C80.9096 14.702 80.4536 15.23 79.8536 15.61C79.2536 15.99 78.5216 16.18 77.6576 16.18ZM77.6576 15.16C78.3016 15.164 78.8376 15.02 79.2656 14.728C79.6976 14.432 80.0196 14.022 80.2316 13.498C80.4476 12.974 80.5556 12.368 80.5556 11.68C80.5556 10.988 80.4476 10.382 80.2316 9.862C80.0196 9.342 79.6976 8.936 79.2656 8.644C78.8376 8.352 78.3016 8.204 77.6576 8.2C77.0136 8.196 76.4776 8.34 76.0496 8.632C75.6256 8.924 75.3056 9.332 75.0896 9.856C74.8736 10.38 74.7636 10.988 74.7596 11.68C74.7556 12.368 74.8616 12.972 75.0776 13.492C75.2936 14.012 75.6156 14.42 76.0436 14.716C76.4756 15.008 77.0136 15.156 77.6576 15.16ZM82.8947 16V7.36H83.9747L88.4807 14.11V7.36H89.5607V16H88.4807L83.9747 9.244V16H82.8947ZM91.2384 16V7.36H96.6984V8.374H92.3064V11.08H95.9784V12.094H92.3064V14.986H96.6984V16H91.2384ZM100.211 16V12.406L97.3008 7.36H98.5428L100.751 11.182L102.953 7.36H104.195L101.291 12.406V16H100.211ZM106.953 16V7.36H110.319C110.835 7.36 111.275 7.466 111.639 7.678C112.007 7.89 112.287 8.17 112.479 8.518C112.675 8.862 112.773 9.234 112.773 9.634C112.773 10.102 112.653 10.512 112.413 10.864C112.173 11.216 111.849 11.458 111.441 11.59L111.429 11.296C111.985 11.444 112.417 11.716 112.725 12.112C113.033 12.508 113.187 12.98 113.187 13.528C113.187 14.032 113.083 14.468 112.875 14.836C112.671 15.204 112.375 15.49 111.987 15.694C111.603 15.898 111.147 16 110.619 16H106.953ZM108.033 14.98H110.415C110.735 14.98 111.021 14.922 111.273 14.806C111.525 14.686 111.723 14.518 111.867 14.302C112.015 14.086 112.089 13.826 112.089 13.522C112.089 13.23 112.023 12.968 111.891 12.736C111.763 12.504 111.581 12.32 111.345 12.184C111.113 12.044 110.843 11.974 110.535 11.974H108.033V14.98ZM108.033 10.966H110.307C110.563 10.966 110.793 10.912 110.997 10.804C111.205 10.692 111.369 10.536 111.489 10.336C111.613 10.136 111.675 9.902 111.675 9.634C111.675 9.262 111.549 8.958 111.297 8.722C111.045 8.486 110.715 8.368 110.307 8.368H108.033V10.966ZM113.783 16L116.675 7.36H118.163L121.055 16H119.945L117.239 7.984H117.575L114.893 16H113.783ZM115.175 13.978V12.976H119.663V13.978H115.175ZM125.447 16.18C124.587 16.18 123.857 15.99 123.257 15.61C122.657 15.23 122.199 14.702 121.883 14.026C121.571 13.35 121.415 12.568 121.415 11.68C121.415 10.792 121.571 10.01 121.883 9.334C122.199 8.658 122.657 8.13 123.257 7.75C123.857 7.37 124.587 7.18 125.447 7.18C126.447 7.18 127.269 7.434 127.913 7.942C128.561 8.45 129.007 9.134 129.251 9.994L128.165 10.282C127.989 9.638 127.675 9.13 127.223 8.758C126.771 8.386 126.179 8.2 125.447 8.2C124.803 8.2 124.267 8.346 123.839 8.638C123.411 8.93 123.089 9.338 122.873 9.862C122.657 10.382 122.547 10.988 122.543 11.68C122.539 12.368 122.645 12.974 122.861 13.498C123.077 14.018 123.401 14.426 123.833 14.722C124.265 15.014 124.803 15.16 125.447 15.16C126.179 15.16 126.771 14.974 127.223 14.602C127.675 14.226 127.989 13.718 128.165 13.078L129.251 13.366C129.007 14.222 128.561 14.906 127.913 15.418C127.269 15.926 126.447 16.18 125.447 16.18ZM130.567 16V7.36H131.635V11.416L135.415 7.36H136.759L132.835 11.554L137.065 16H135.685L131.635 11.776V16H130.567ZM143.568 16.18C142.976 16.18 142.436 16.076 141.948 15.868C141.46 15.66 141.04 15.362 140.688 14.974C140.336 14.582 140.064 14.11 139.872 13.558C139.684 13.002 139.59 12.376 139.59 11.68C139.59 10.76 139.754 9.964 140.082 9.292C140.41 8.62 140.872 8.102 141.468 7.738C142.064 7.37 142.764 7.186 143.568 7.186C144.536 7.186 145.316 7.412 145.908 7.864C146.5 8.312 146.908 8.926 147.132 9.706L146.052 9.928C145.872 9.404 145.576 8.986 145.164 8.674C144.752 8.362 144.238 8.206 143.622 8.206C142.978 8.202 142.442 8.346 142.014 8.638C141.59 8.926 141.27 9.332 141.054 9.856C140.838 10.38 140.728 10.988 140.724 11.68C140.72 12.368 140.826 12.972 141.042 13.492C141.258 14.012 141.58 14.42 142.008 14.716C142.44 15.008 142.978 15.156 143.622 15.16C144.178 15.164 144.646 15.058 145.026 14.842C145.406 14.626 145.7 14.314 145.908 13.906C146.116 13.498 146.242 13.008 146.286 12.436H144.45V11.554H147.414C147.426 11.634 147.432 11.73 147.432 11.842C147.436 11.95 147.438 12.024 147.438 12.064C147.438 12.852 147.29 13.558 146.994 14.182C146.702 14.802 146.268 15.29 145.692 15.646C145.12 16.002 144.412 16.18 143.568 16.18ZM152.045 16.18C151.377 16.18 150.787 16.042 150.275 15.766C149.763 15.49 149.361 15.104 149.069 14.608C148.781 14.108 148.637 13.522 148.637 12.85V7.366L149.717 7.36V12.76C149.717 13.168 149.785 13.524 149.921 13.828C150.061 14.128 150.245 14.378 150.473 14.578C150.701 14.778 150.951 14.928 151.223 15.028C151.499 15.124 151.773 15.172 152.045 15.172C152.321 15.172 152.597 15.122 152.873 15.022C153.149 14.922 153.399 14.774 153.623 14.578C153.851 14.378 154.033 14.126 154.169 13.822C154.305 13.518 154.373 13.164 154.373 12.76V7.36H155.453V12.85C155.453 13.518 155.307 14.102 155.015 14.602C154.727 15.102 154.327 15.49 153.815 15.766C153.303 16.042 152.713 16.18 152.045 16.18ZM156.17 16L159.062 7.36H160.55L163.442 16H162.332L159.626 7.984H159.962L157.28 16H156.17ZM157.562 13.978V12.976H162.05V13.978H157.562ZM164.516 16V7.36H167.93C168.014 7.36 168.114 7.364 168.23 7.372C168.346 7.376 168.458 7.388 168.566 7.408C169.034 7.48 169.426 7.64 169.742 7.888C170.062 8.136 170.302 8.45 170.462 8.83C170.622 9.206 170.702 9.624 170.702 10.084C170.702 10.752 170.528 11.332 170.18 11.824C169.832 12.312 169.322 12.618 168.65 12.742L168.242 12.808H165.584V16H164.516ZM169.658 16L167.954 12.484L169.01 12.16L170.882 16H169.658ZM165.584 11.794H167.894C167.97 11.794 168.056 11.79 168.152 11.782C168.252 11.774 168.346 11.76 168.434 11.74C168.71 11.676 168.934 11.56 169.106 11.392C169.282 11.22 169.41 11.02 169.49 10.792C169.57 10.56 169.61 10.324 169.61 10.084C169.61 9.844 169.57 9.61 169.49 9.382C169.41 9.15 169.282 8.948 169.106 8.776C168.934 8.604 168.71 8.488 168.434 8.428C168.346 8.404 168.252 8.39 168.152 8.386C168.056 8.378 167.97 8.374 167.894 8.374H165.584V11.794ZM171.603 16L174.495 7.36H175.983L178.875 16H177.765L175.059 7.984H175.395L172.713 16H171.603ZM172.995 13.978V12.976H177.483V13.978H172.995ZM179.949 16V7.36H181.029L185.535 14.11V7.36H186.615V16H185.535L181.029 9.244V16H179.949ZM190.519 16V8.374H187.573V7.36H194.533V8.374H191.587V16H190.519ZM195.488 16V7.36H200.948V8.374H196.556V11.08H200.228V12.094H196.556V14.986H200.948V16H195.488ZM202.391 16V7.36H207.851V8.374H203.459V11.08H207.131V12.094H203.459V14.986H207.851V16H202.391Z" fill="white"/>
</svg>
